<svg height="64" viewBox="0 0 64 64" width="64" xmlns="http://www.w3.org/2000/svg"><g fill="none" fill-rule="evenodd"><circle cx="32" cy="32" fill="#5b68c0" r="30"/><path d="m36.3321968 30.4601318c-.5162844-1.8308902-1.9567594-3.2743215-3.7859004-3.7947693m7.8847145 4.0093704c-1.0909626-3.8688608-4.1348356-6.9189808-8-8.0187408m12.6451104 8.4507614c-1.7831949-6.3237118-6.7584514-11.309179-13.0761213-13.1067535" stroke="#fff" stroke-linecap="round" stroke-linejoin="round" stroke-width="2"/><path d="m25.9501121 29.3106987c.7563146-.6574543.829571-1.7918663.1755911-2.5441842l-4.3356637-4.9876105-2.7220372 2.3662308c-1.5002806 1.304174-1.3916095 3.1226838-.6489461 5.1655642 0 0 2.2542092 4.0555299 5.8609438 7.7295458 3.6067346 3.6740158 10.3342838 7.1578135 10.3342838 7.1578135 1.6696546 1.0842864 3.9048623.605598 4.9875455-1.061588l1.9643685-3.0248621-5.5424793-3.5993281c-.8360127-.5429131-1.9491894-.3124899-2.4949868.5279643l-.6389759.9839367c-2.6937356-.8982962-6.2090498-1.781621-8.046541-7.7512713z" fill="#fff"/></g></svg>